<?xml version="1.0" encoding="UTF-8" standalone="no"?>
<svg width="128px" height="128px" viewBox="0 0 128 128" version="1.1" xmlns="http://www.w3.org/2000/svg" xmlns:xlink="http://www.w3.org/1999/xlink" xmlns:sketch="http://www.bohemiancoding.com/sketch/ns">
    <!-- Generator: Sketch 3.3.3 (12072) - http://www.bohemiancoding.com/sketch -->
    <title>Moon</title>
    <desc>Created with Sketch.</desc>
    <defs>
        <path id="path-1" d="M74.2672259,88.0747468 C71.0418396,89.3582553 67.7316244,90 64.336481,90 C60.9413375,90 57.6311223,89.3582553 54.4057361,88.0747468 C51.1803498,86.7912382 48.2823958,84.8660043 45.7117872,82.2989872 C43.1411786,79.7319701 41.2132511,76.8380649 39.9279468,73.617185 C38.6426425,70.396305 38,67.0907146 38,63.7003147 C38,60.3099147 38.6426425,57.0043243 39.9279468,53.7834444 C41.2132511,50.5625644 43.1411786,47.6686593 45.7117872,45.1016422 C49.3009389,41.5175051 53.5448045,39.1684775 58.4435115,38.0544889 C59.0740381,37.9091861 59.6075527,38.0544867 60.0440711,38.4903953 C60.5290916,38.9747381 60.6503449,39.4832905 60.4078346,40.0160677 C59.5832998,43.9392447 59.7166784,47.7776043 60.8079745,51.5312614 C61.8992707,55.2849185 63.8514488,58.5662921 66.6645677,61.3754806 C69.4776865,64.1846691 72.7636511,66.1341199 76.5225599,67.2238913 C80.2814687,68.3136627 84.1009478,68.4226382 87.9811117,67.5508211 C88.6116383,67.4055182 89.1209022,67.5266021 89.5089186,67.9140764 C89.945437,68.349985 90.090941,68.8827541 89.9454349,69.5123998 C88.8298877,74.5011312 86.5018243,78.7632844 82.9611747,82.2989872 C80.3905661,84.8660043 77.4926121,86.7912382 74.2672259,88.0747468 L74.2672259,88.0747468 Z"></path>
    </defs>
    <g id="Page-1" stroke="none" stroke-width="1" fill="none" fill-rule="evenodd" sketch:type="MSPage">
        <g id="Moon" sketch:type="MSArtboardGroup">
            <g sketch:type="MSLayerGroup">
                <rect id="Rectangle-16" fill="#FFFFFF" sketch:type="MSShapeGroup" x="0" y="0" width="128" height="128"></rect>
                <g id="I-Copy-3">
                    <use fill="none" sketch:type="MSShapeGroup" xlink:href="#path-1"></use>
                    <use fill-opacity="0.8" fill="#D1C7BC" fill-rule="evenodd" xlink:href="#path-1"></use>
                </g>
            </g>
        </g>
    </g>
</svg>