<?xml version="1.0" encoding="UTF-8" standalone="no"?>
<svg width="128px" height="128px" viewBox="0 0 128 128" version="1.1" xmlns="http://www.w3.org/2000/svg" xmlns:xlink="http://www.w3.org/1999/xlink" xmlns:sketch="http://www.bohemiancoding.com/sketch/ns">
    <!-- Generator: Sketch 3.3.3 (12072) - http://www.bohemiancoding.com/sketch -->
    <title>Fog</title>
    <desc>Created with Sketch.</desc>
    <defs></defs>
    <g id="Page-1" stroke="none" stroke-width="1" fill="none" fill-rule="evenodd" sketch:type="MSPage">
        <g id="Fog" sketch:type="MSArtboardGroup">
            <g id="Clouds" sketch:type="MSLayerGroup">
                <rect id="Rectangle-16" fill="#FFFFFF" sketch:type="MSShapeGroup" x="0" y="0" width="128" height="128"></rect>
                <g id="Oval-1-Copy-+-Path-Copy-Copy-Copy" transform="translate(25.000000, 34.000000)" fill="#DDE1E6" sketch:type="MSShapeGroup">
                    <path d="M17.55,51.9741359 C7.7721494,51.454123 0,43.1579757 0,33 C0,22.5065898 8.29392501,14 18.525,14 C20.7143613,14 22.8150161,14.3895362 24.7646734,15.1047204 C26.516808,6.479722 33.9706117,0 42.9,0 C52.8040327,0 60.8927802,7.97144547 61.3997835,18.0000192 L61.3997814,18.0000193 C61.4081861,18.0000064 61.4165923,18 61.425,18 C70.5791197,18 78,25.6111593 78,35 C78,44.3888407 70.5791197,52 61.425,52 L17.55,52 L17.55,51.9741359 Z" id="Oval-1-Copy"></path>
                    <rect id="Rectangle-108" x="7" y="56" width="64" height="4" rx="6"></rect>
                    <rect id="Rectangle-108-Copy" x="7" y="64" width="64" height="4" rx="6"></rect>
                </g>
            </g>
        </g>
    </g>
</svg>
