<?xml version="1.0" encoding="UTF-8" standalone="no"?>
<svg width="128px" height="128px" viewBox="0 0 128 128" version="1.1" xmlns="http://www.w3.org/2000/svg" xmlns:xlink="http://www.w3.org/1999/xlink" xmlns:sketch="http://www.bohemiancoding.com/sketch/ns">
    <!-- Generator: Sketch 3.3.3 (12072) - http://www.bohemiancoding.com/sketch -->
    <title>Moon&amp;Clouds</title>
    <desc>Created with Sketch.</desc>
    <defs>
        <path id="path-1" d="M73.2927594,40.4449878 C70.6876397,41.4816678 68.0140043,42 65.2717731,42 C62.5295419,42 59.8559065,41.4816678 57.2507868,40.4449878 C54.6456672,39.4083078 52.305012,37.8533111 50.2287512,35.7799512 C48.1524904,33.7065912 46.5953182,31.3692063 45.5571878,28.7677263 C44.5190574,26.1662463 44,23.4963464 44,20.7579465 C44,18.0195465 44.5190574,15.3496466 45.5571878,12.7481666 C46.5953182,10.1466866 48.1524904,7.80930172 50.2287512,5.73594175 C53.1276814,2.84106178 56.555419,0.943770264 60.512067,0.0440102745 C61.0213385,-0.0733497241 61.4522541,0.0440085142 61.8048267,0.39608851 C62.196574,0.787288505 62.2945093,1.19804234 62.0986357,1.62836233 C61.4326652,4.7970823 61.5403941,7.89729576 62.4218256,10.9290957 C63.3032571,13.9608957 64.8800164,16.6112359 67.1521508,18.8801959 C69.4242853,21.1491558 72.0783336,22.7237122 75.1143753,23.6039122 C78.150417,24.4841122 81.2353809,24.5721309 84.3693594,23.8679709 C84.878631,23.7506109 85.2899595,23.8484094 85.6033573,24.1613694 C85.9559299,24.5134494 86.0734523,24.9437629 85.9559282,25.4523229 C85.0549093,29.4816829 83.1745504,32.9241912 80.314795,35.7799512 C78.2385342,37.8533111 75.897879,39.4083078 73.2927594,40.4449878 L73.2927594,40.4449878 Z"></path>
    </defs>
    <g id="Page-1" stroke="none" stroke-width="1" fill="none" fill-rule="evenodd" sketch:type="MSPage">
        <g id="Moon&amp;Clouds" sketch:type="MSArtboardGroup">
            <g id="Sun&amp;Clouds" sketch:type="MSLayerGroup">
                <rect id="Rectangle-16" fill="#FFFFFF" sketch:type="MSShapeGroup" x="0" y="0" width="128" height="128"></rect>
                <g id="A-Copy-+-Oval-1-Copy-5" transform="translate(23.000000, 32.000000)">
                    <g id="I-Copy-4">
                        <use fill="none" sketch:type="MSShapeGroup" xlink:href="#path-1"></use>
                        <use fill-opacity="0.8" fill="#000" fill-rule="evenodd" xlink:href="#path-1"></use>
                    </g>
                    <path d="M0,43.7307692 C0,33.6409517 7.968198,25.4615385 17.7974684,25.4615385 C19.5773309,25.4615385 21.2961704,25.7297346 22.9177265,26.2289053 C24.7091528,18.0832586 31.8017511,12 40.278481,12 C49.793553,12 57.5646314,19.6648514 58.0517232,29.3077108 C66.8705597,29.3076923 74,36.6261147 74,45.6538462 C74,54.6815776 66.8705597,62 58.0759494,62 L16.8607595,62 C7.46691406,61.4751182 0,53.4980536 0,43.7307692 Z" id="Oval-1-Copy-5" fill-opacity="0.8" fill="#000" sketch:type="MSShapeGroup"></path>
                </g>
            </g>
        </g>
    </g>
</svg>
