<?xml version="1.0" encoding="UTF-8" standalone="no"?>
<svg width="128px" height="128px" viewBox="0 0 128 128" version="1.1" xmlns="http://www.w3.org/2000/svg" xmlns:xlink="http://www.w3.org/1999/xlink" xmlns:sketch="http://www.bohemiancoding.com/sketch/ns">
    <!-- Generator: Sketch 3.3.3 (12072) - http://www.bohemiancoding.com/sketch -->
    <title>Sun&amp;Clouds</title>
    <desc>Created with Sketch.</desc>
    <defs></defs>
    <g id="Page-1" stroke="none" stroke-width="1" fill="none" fill-rule="evenodd" sketch:type="MSPage">
        <g id="Sun&amp;Clouds" sketch:type="MSArtboardGroup">
            <g sketch:type="MSLayerGroup">
                <rect id="Rectangle-16" fill="#FFFFFF" sketch:type="MSShapeGroup" x="0" y="0" width="128" height="128"></rect>
                <g id="A-Copy-+-Oval-1-Copy-5" transform="translate(21.000000, 20.000000)" sketch:type="MSShapeGroup">
                    <path d="M60,56 C57.5156126,56 55.1836046,55.5312547 53.0039062,54.59375 C50.8242079,53.6562453 48.9140707,52.3789143 47.2734375,50.7617188 C45.6328043,49.1445232 44.3437547,47.234386 43.40625,45.03125 C42.4687453,42.828114 42,40.4843874 42,38 C42,35.5156126 42.4687453,33.1836046 43.40625,31.0039062 C44.3437547,28.8242079 45.6328043,26.9140707 47.2734375,25.2734375 C48.9140707,23.6328043 50.8242079,22.3437547 53.0039062,21.40625 C55.1836046,20.4687453 57.5156126,20 60,20 C62.4843874,20 64.8163954,20.4687453 66.9960938,21.40625 C69.1757921,22.3437547 71.0859293,23.6328043 72.7265625,25.2734375 C74.3671957,26.9140707 75.6562453,28.8242079 76.59375,31.0039062 C77.5312547,33.1836046 78,35.5156126 78,38 C78,40.4843874 77.5312547,42.828114 76.59375,45.03125 C75.6562453,47.234386 74.3671957,49.1445232 72.7265625,50.7617188 C71.0859293,52.3789143 69.1757921,53.6562453 66.9960938,54.59375 C64.8163954,55.5312547 62.4843874,56 60,56 Z M58,2.0085302 C58,0.899249601 58.8877296,0 60,0 C61.1045695,0 62,0.901950359 62,2.0085302 L62,9.9914698 C62,11.1007504 61.1122704,12 60,12 C58.8954305,12 58,11.0980496 58,9.9914698 L58,2.0085302 Z M78.3908081,59.2192352 C77.6064282,58.4348554 77.5982824,57.1712702 78.3847763,56.3847763 C79.1658249,55.6037277 80.4367651,55.608338 81.2192352,56.3908081 L86.8640259,62.0355988 C87.6484058,62.8199786 87.6565516,64.0835638 86.8700577,64.8700577 C86.0890091,65.6511063 84.8180689,65.646496 84.0355988,64.8640259 L78.3908081,59.2192352 Z M33.1359741,13.9644012 C32.3515942,13.1800214 32.3434484,11.9164362 33.1299423,11.1299423 C33.9109909,10.3488937 35.1819311,10.353504 35.9644012,11.1359741 L41.6091919,16.7807648 C42.3935718,17.5651446 42.4017176,18.8287298 41.6152237,19.6152237 C40.8341751,20.3962723 39.5632349,20.391662 38.7807648,19.6091919 L33.1359741,13.9644012 Z M88.0085302,40 C86.8992496,40 86,39.1122704 86,38 C86,36.8954305 86.9019504,36 88.0085302,36 L95.9914698,36 C97.1007504,36 98,36.8877296 98,38 C98,39.1045695 97.0980496,40 95.9914698,40 L88.0085302,40 Z M81.2192352,19.6091919 C80.4348554,20.3935718 79.1712702,20.4017176 78.3847763,19.6152237 C77.6037277,18.8341751 77.608338,17.5632349 78.3908081,16.7807648 L84.0355988,11.1359741 C84.8199786,10.3515942 86.0835638,10.3434484 86.8700577,11.1299423 C87.6511063,11.9109909 87.646496,13.1819311 86.8640259,13.9644012 L81.2192352,19.6091919 Z" id="A-Copy" fill="#FFCC24"></path>
                    <path d="M0,55.7307692 C0,45.6409517 7.968198,37.4615385 17.7974684,37.4615385 C19.5773309,37.4615385 21.2961704,37.7297346 22.9177265,38.2289053 C24.7091528,30.0832586 31.8017511,24 40.278481,24 C49.793553,24 57.5646314,31.6648514 58.0517232,41.3077108 C66.8705597,41.3076923 74,48.6261147 74,57.6538462 C74,66.6815776 66.8705597,74 58.0759494,74 L16.8607595,74 C7.46691406,73.4751182 0,65.4980536 0,55.7307692 Z" id="Oval-1-Copy-5" fill-opacity="0.8" fill="#DDE1E6"></path>
                </g>
            </g>
        </g>
    </g>
</svg>