<?xml version="1.0" encoding="UTF-8" standalone="no"?>
<svg width="128px" height="128px" viewBox="0 0 128 128" version="1.1" xmlns="http://www.w3.org/2000/svg" xmlns:xlink="http://www.w3.org/1999/xlink" xmlns:sketch="http://www.bohemiancoding.com/sketch/ns">
    <!-- Generator: Sketch 3.3.3 (12072) - http://www.bohemiancoding.com/sketch -->
    <title>Rain</title>
    <desc>Created with Sketch.</desc>
    <defs></defs>
    <g id="Page-1" stroke="none" stroke-width="1" fill="none" fill-rule="evenodd" sketch:type="MSPage">
        <g id="Rain" sketch:type="MSArtboardGroup">
            <g id="Clouds" sketch:type="MSLayerGroup">
                <rect id="Rectangle-16" fill="#FFFFFF" sketch:type="MSShapeGroup" x="0" y="0" width="128" height="128"></rect>
                <g id="Oval-1-Copy-+-Path" transform="translate(25.000000, 34.000000)" sketch:type="MSShapeGroup">
                    <path d="M17.55,51.9741359 C7.7721494,51.454123 0,43.1579757 0,33 C0,22.5065898 8.29392501,14 18.525,14 C20.7143613,14 22.8150161,14.3895362 24.7646734,15.1047204 C26.516808,6.479722 33.9706117,0 42.9,0 C52.8040327,0 60.8927802,7.97144547 61.3997835,18.0000192 L61.3997814,18.0000193 C61.4081861,18.0000064 61.4165923,18 61.425,18 C70.5791197,18 78,25.6111593 78,35 C78,44.3888407 70.5791197,52 61.425,52 L17.55,52 L17.55,51.9741359 Z" id="Oval-1-Copy" fill="#DDE1E6"></path>
                    <path d="M52,57.999615 C52,56.8952581 52.8877296,56 54,56 C55.1045695,56 56,56.8874333 56,57.999615 L56,64.000385 C56,65.1047419 55.1122704,66 54,66 C52.8954305,66 52,65.1125667 52,64.000385 L52,57.999615 Z M42,57.9940603 C42,56.8927712 42.8877296,56 44,56 C45.1045695,56 46,56.8945138 46,57.9940603 L46,70.0059397 C46,71.1072288 45.1122704,72 44,72 C42.8954305,72 42,71.1054862 42,70.0059397 L42,57.9940603 Z M32,57.999615 C32,56.8952581 32.8877296,56 34,56 C35.1045695,56 36,56.8874333 36,57.999615 L36,64.000385 C36,65.1047419 35.1122704,66 34,66 C32.8954305,66 32,65.1125667 32,64.000385 L32,57.999615 Z M22,57.9940603 C22,56.8927712 22.8877296,56 24,56 C25.1045695,56 26,56.8945138 26,57.9940603 L26,70.0059397 C26,71.1072288 25.1122704,72 24,72 C22.8954305,72 22,71.1054862 22,70.0059397 L22,57.9940603 Z" id="Path" fill="#1994FF"></path>
                </g>
            </g>
        </g>
    </g>
</svg>