<?xml version="1.0" encoding="UTF-8" standalone="no"?>
<svg width="128px" height="128px" viewBox="0 0 128 128" version="1.1" xmlns="http://www.w3.org/2000/svg" xmlns:xlink="http://www.w3.org/1999/xlink" xmlns:sketch="http://www.bohemiancoding.com/sketch/ns">
    <!-- Generator: Sketch 3.3.3 (12072) - http://www.bohemiancoding.com/sketch -->
    <title>Sleet</title>
    <desc>Created with Sketch.</desc>
    <defs>
        <path d="M19.0760373,56.5848586 C19.8547663,55.8061296 21.1137705,55.8025647 21.9002644,56.5890586 C22.681313,57.3701072 22.6819613,58.6357889 21.9044645,59.4132857 L13.410783,67.9069671 C12.6320541,68.6856961 11.3730499,68.689261 10.5865559,67.9027671 C9.80550736,67.1217185 9.80485912,65.8560368 10.5823559,65.07854 L19.0760373,56.5848586 Z M31.0760373,56.5848586 C31.8547663,55.8061296 33.1137705,55.8025647 33.9002644,56.5890586 C34.681313,57.3701072 34.6819613,58.6357889 33.9044645,59.4132857 L25.410783,67.9069671 C24.6320541,68.6856961 23.3730499,68.689261 22.5865559,67.9027671 C21.8055074,67.1217185 21.8048591,65.8560368 22.5823559,65.07854 L31.0760373,56.5848586 Z M43.0760373,56.5848586 C43.8547663,55.8061296 45.1137705,55.8025647 45.9002644,56.5890586 C46.681313,57.3701072 46.6819613,58.6357889 45.9044645,59.4132857 L37.410783,67.9069671 C36.6320541,68.6856961 35.3730499,68.689261 34.5865559,67.9027671 C33.8055074,67.1217185 33.8048591,65.8560368 34.5823559,65.07854 L43.0760373,56.5848586 Z M55.0760373,56.5848586 C55.8547663,55.8061296 57.1137705,55.8025647 57.9002644,56.5890586 C58.681313,57.3701072 58.6819613,58.6357889 57.9044645,59.4132857 L49.410783,67.9069671 C48.6320541,68.6856961 47.3730499,68.689261 46.5865559,67.9027671 C45.8055074,67.1217185 45.8048591,65.8560368 46.5823559,65.07854 L55.0760373,56.5848586 Z" id="path-1"></path>
    </defs>
    <g id="Page-1" stroke="none" stroke-width="1" fill="none" fill-rule="evenodd" sketch:type="MSPage">
        <g id="Sleet" sketch:type="MSArtboardGroup">
            <g id="Clouds" sketch:type="MSLayerGroup">
                <rect id="Rectangle-16" fill="#FFFFFF" sketch:type="MSShapeGroup" x="0" y="0" width="128" height="128"></rect>
                <g id="Oval-1-Copy-+-Path-Copy" transform="translate(25.000000, 34.000000)">
                    <path d="M17.55,51.9741359 C7.7721494,51.454123 0,43.1579757 0,33 C0,22.5065898 8.29392501,14 18.525,14 C20.7143613,14 22.8150161,14.3895362 24.7646734,15.1047204 C26.516808,6.479722 33.9706117,0 42.9,0 C52.8040327,0 60.8927802,7.97144547 61.3997835,18.0000192 L61.3997814,18.0000193 C61.4081861,18.0000064 61.4165923,18 61.425,18 C70.5791197,18 78,25.6111593 78,35 C78,44.3888407 70.5791197,52 61.425,52 L17.55,52 L17.55,51.9741359 Z" id="Oval-1-Copy" fill="#DDE1E6" sketch:type="MSShapeGroup"></path>
                    <g id="Path-Copy-5">
                        <use fill="none" sketch:type="MSShapeGroup" xlink:href="#path-1"></use>
                        <use fill="#7A88A3" fill-rule="evenodd" xlink:href="#path-1"></use>
                    </g>
                </g>
            </g>
        </g>
    </g>
</svg>