<?xml version="1.0" encoding="UTF-8" standalone="no"?>
<svg width="128px" height="128px" viewBox="0 0 128 128" version="1.1" xmlns="http://www.w3.org/2000/svg" xmlns:xlink="http://www.w3.org/1999/xlink" xmlns:sketch="http://www.bohemiancoding.com/sketch/ns">
    <!-- Generator: Sketch 3.3.3 (12072) - http://www.bohemiancoding.com/sketch -->
    <title>Snow</title>
    <desc>Created with Sketch.</desc>
    <defs></defs>
    <g id="Page-1" stroke="none" stroke-width="1" fill="none" fill-rule="evenodd" sketch:type="MSPage">
        <g id="Snow" sketch:type="MSArtboardGroup">
            <g id="Clouds" sketch:type="MSLayerGroup">
                <rect id="Rectangle-16" fill="#FFFFFF" sketch:type="MSShapeGroup" x="0" y="0" width="128" height="128"></rect>
                <g id="Oval-1-Copy-+-Path-Copy" transform="translate(25.000000, 34.000000)">
                    <path d="M17.55,51.9741359 C7.7721494,51.454123 0,43.1579757 0,33 C0,22.5065898 8.29392501,14 18.525,14 C20.7143613,14 22.8150161,14.3895362 24.7646734,15.1047204 C26.516808,6.479722 33.9706117,0 42.9,0 C52.8040327,0 60.8927802,7.97144547 61.3997835,18.0000192 L61.3997814,18.0000193 C61.4081861,18.0000064 61.4165923,18 61.425,18 C70.5791197,18 78,25.6111593 78,35 C78,44.3888407 70.5791197,52 61.425,52 L17.55,52 L17.55,51.9741359 Z" id="Oval-1-Copy" fill="#DDE1E6" sketch:type="MSShapeGroup"></path>
                    <g id="Oval-17-+-Oval-17-Copy-+-Oval-17-Copy-2" transform="translate(21.000000, 56.000000)"></g>
                    <path d="M24,56 L26.5980762,57.5 L26.5980762,60.5 L24,62 L21.4019238,60.5 L21.4019238,57.5 L24,56 Z M39,56 L41.5980762,57.5 L41.5980762,60.5 L39,62 L36.4019238,60.5 L36.4019238,57.5 L39,56 Z M54,56 L56.5980762,57.5 L56.5980762,60.5 L54,62 L51.4019238,60.5 L51.4019238,57.5 L54,56 Z M32,66 L34.5980762,67.5 L34.5980762,70.5 L32,72 L29.4019238,70.5 L29.4019238,67.5 L32,66 Z M46,66 L48.5980762,67.5 L48.5980762,70.5 L46,72 L43.4019238,70.5 L43.4019238,67.5 L46,66 Z" id="Polygon-1" fill="#33D7FF" sketch:type="MSShapeGroup"></path>
                </g>
            </g>
        </g>
    </g>
</svg>