<?xml version="1.0" encoding="UTF-8" standalone="no"?>
<svg width="128px" height="128px" viewBox="0 0 128 128" version="1.1" xmlns="http://www.w3.org/2000/svg" xmlns:xlink="http://www.w3.org/1999/xlink" xmlns:sketch="http://www.bohemiancoding.com/sketch/ns">
    <!-- Generator: Sketch 3.3.3 (12072) - http://www.bohemiancoding.com/sketch -->
    <title>Sun</title>
    <desc>Created with Sketch.</desc>
    <defs></defs>
    <g id="Page-1" stroke="none" stroke-width="1" fill="none" fill-rule="evenodd" sketch:type="MSPage">
        <g id="Sun" sketch:type="MSArtboardGroup">
            <g id="Sun-Copy" sketch:type="MSLayerGroup">
                <rect id="Rectangle-16" fill="#FFFFFF" sketch:type="MSShapeGroup" x="0" y="0" width="128" height="128"></rect>
                <path d="M64,83 C61.3775911,83 58.9160271,82.5052133 56.6152344,81.515625 C54.3144416,80.5260367 52.2981857,79.1777429 50.5664062,77.4707031 C48.8346268,75.7636633 47.4739633,73.7474075 46.484375,71.421875 C45.4947867,69.0963425 45,66.6224089 45,64 C45,61.3775911 45.4947867,58.9160271 46.484375,56.6152344 C47.4739633,54.3144416 48.8346268,52.2981857 50.5664062,50.5664062 C52.2981857,48.8346268 54.3144416,47.4739633 56.6152344,46.484375 C58.9160271,45.4947867 61.3775911,45 64,45 C66.6224089,45 69.0839729,45.4947867 71.3847656,46.484375 C73.6855584,47.4739633 75.7018143,48.8346268 77.4335938,50.5664062 C79.1653732,52.2981857 80.5260367,54.3144416 81.515625,56.6152344 C82.5052133,58.9160271 83,61.3775911 83,64 C83,66.6224089 82.5052133,69.0963425 81.515625,71.421875 C80.5260367,73.7474075 79.1653732,75.7636633 77.4335938,77.4707031 C75.7018143,79.1777429 73.6855584,80.5260367 71.3847656,81.515625 C69.0839729,82.5052133 66.6224089,83 64,83 Z M62,93.0085302 C62,91.8992496 62.8877296,91 64,91 C65.1045695,91 66,91.9019504 66,93.0085302 L66,100.99147 C66,102.10075 65.1122704,103 64,103 C62.8954305,103 62,102.09805 62,100.99147 L62,93.0085302 Z M62,27.0085302 C62,25.8992496 62.8877296,25 64,25 C65.1045695,25 66,25.9019504 66,27.0085302 L66,34.9914698 C66,36.1007504 65.1122704,37 64,37 C62.8954305,37 62,36.0980496 62,34.9914698 L62,27.0085302 Z M83.0979149,85.926342 C82.313535,85.1419621 82.3053892,83.878377 83.0918831,83.0918831 C83.8729317,82.3108345 85.1438719,82.3154447 85.926342,83.0979149 L91.5711327,88.7427056 C92.3555125,89.5270854 92.3636584,90.7906706 91.5771645,91.5771645 C90.7961159,92.358213 89.5251757,92.3536028 88.7427056,91.5711327 L83.0979149,85.926342 Z M36.4288673,39.2572944 C35.6444875,38.4729146 35.6363416,37.2093294 36.4228355,36.4228355 C37.2038841,35.641787 38.4748243,35.6463972 39.2572944,36.4288673 L44.9020851,42.073658 C45.686465,42.8580379 45.6946108,44.121623 44.9081169,44.9081169 C44.1270683,45.6891655 42.8561281,45.6845553 42.073658,44.9020851 L36.4288673,39.2572944 Z M93.0085302,66 C91.8992496,66 91,65.1122704 91,64 C91,62.8954305 91.9019504,62 93.0085302,62 L100.99147,62 C102.10075,62 103,62.8877296 103,64 C103,65.1045695 102.09805,66 100.99147,66 L93.0085302,66 Z M27.0085302,66 C25.8992496,66 25,65.1122704 25,64 C25,62.8954305 25.9019504,62 27.0085302,62 L34.9914698,62 C36.1007504,62 37,62.8877296 37,64 C37,65.1045695 36.0980496,66 34.9914698,66 L27.0085302,66 Z M85.926342,44.9020851 C85.1419621,45.686465 83.878377,45.6946108 83.0918831,44.9081169 C82.3108345,44.1270683 82.3154447,42.8561281 83.0979149,42.073658 L88.7427056,36.4288673 C89.5270854,35.6444875 90.7906706,35.6363416 91.5771645,36.4228355 C92.358213,37.2038841 92.3536028,38.4748243 91.5711327,39.2572944 L85.926342,44.9020851 Z M39.2572944,91.5711327 C38.4729146,92.3555125 37.2093294,92.3636584 36.4228355,91.5771645 C35.641787,90.7961159 35.6463972,89.5251757 36.4288673,88.7427056 L42.073658,83.0979149 C42.8580379,82.313535 44.121623,82.3053892 44.9081169,83.0918831 C45.6891655,83.8729317 45.6845553,85.1438719 44.9020851,85.926342 L39.2572944,91.5711327 Z" id="A" fill="#FFCC24" sketch:type="MSShapeGroup"></path>
            </g>
        </g>
    </g>
</svg>
